<svg id="Layer_1" data-name="Layer 1" xmlns="http://www.w3.org/2000/svg" viewBox="0 0 1080 484.37"><defs><style>.cls-1{fill:#4e3f49;}</style></defs><polygon class="cls-1" points="195.68 364.12 208.44 376.88 221.2 364.07 221.2 287.04 195.68 261.52 195.68 364.12"/><polygon class="cls-1" points="144.43 312.81 170.05 338.44 170.05 192.78 144.43 167.15 144.43 312.81"/><polygon class="cls-1" points="246.92 153.96 272.56 128.34 144.43 128.34 170.05 153.96 195.68 153.96 195.68 218.63 221.3 244.25 221.3 153.96 246.92 153.96"/><polygon class="cls-1" points="246.92 338.44 272.55 312.84 272.55 167.15 246.92 192.79 246.92 338.44"/><path class="cls-1" d="M369,304.2h-15l-3,8.1h-2.21l11.61-30.86h2.25l11.56,30.86h-2.2Zm-.63-1.71-6.84-18.4-6.88,18.4Z"/><path class="cls-1" d="M381.52,293.45a10.62,10.62,0,0,1,4.18-4.37,12.17,12.17,0,0,1,6.1-1.53,11.28,11.28,0,0,1,6.48,1.87,10.13,10.13,0,0,1,3.86,4.84V279h2V312.3h-2v-6.48a10.17,10.17,0,0,1-3.77,4.93,11.11,11.11,0,0,1-6.57,1.91,12,12,0,0,1-6.1-1.55,10.78,10.78,0,0,1-4.18-4.41,14,14,0,0,1-1.51-6.64A13.81,13.81,0,0,1,381.52,293.45Zm19.3,1a9.49,9.49,0,0,0-3.62-3.78,10,10,0,0,0-5.13-1.33,10.41,10.41,0,0,0-5.22,1.28,8.87,8.87,0,0,0-3.51,3.71,13.8,13.8,0,0,0,0,11.52,8.92,8.92,0,0,0,3.53,3.74,10.24,10.24,0,0,0,5.2,1.3,10.14,10.14,0,0,0,5.15-1.33,9.23,9.23,0,0,0,3.62-3.78,11.91,11.91,0,0,0,1.3-5.69A11.69,11.69,0,0,0,400.82,294.42Z"/><path class="cls-1" d="M421.76,310.1l9-22.23h2.16L422.79,312.3h-2.11l-10.12-24.43h2.2Z"/><path class="cls-1" d="M443.9,311.13a10.76,10.76,0,0,1-4.3-4.39,13.71,13.71,0,0,1-1.55-6.68,13.48,13.48,0,0,1,1.57-6.63,10.81,10.81,0,0,1,4.34-4.37,12.8,12.8,0,0,1,6.19-1.51,12.63,12.63,0,0,1,6.16,1.51,10.7,10.7,0,0,1,4.3,4.34,15,15,0,0,1,0,13.34,10.92,10.92,0,0,1-4.34,4.39,12.59,12.59,0,0,1-6.19,1.53A12.4,12.4,0,0,1,443.9,311.13ZM455,309.67a9,9,0,0,0,3.71-3.62,13.41,13.41,0,0,0,0-11.93,9,9,0,0,0-3.69-3.62,10.64,10.64,0,0,0-4.95-1.19,10.46,10.46,0,0,0-4.92,1.19,9.06,9.06,0,0,0-3.67,3.62,11.76,11.76,0,0,0-1.39,5.94,12,12,0,0,0,1.37,6,8.93,8.93,0,0,0,3.64,3.62,10.53,10.53,0,0,0,4.93,1.19A10.75,10.75,0,0,0,455,309.67Z"/><path class="cls-1" d="M483,312.3l-10.67-11.2v11.2h-2V279h2v19.93l10.49-11.07h2.83L473.77,300l12,12.28Z"/><path class="cls-1" d="M492.1,293.45a10.7,10.7,0,0,1,4.19-4.37,12.13,12.13,0,0,1,6.09-1.53,11.17,11.17,0,0,1,6.57,1.89,10,10,0,0,1,3.78,4.82v-6.39h2V312.3h-2v-6.43a10.12,10.12,0,0,1-3.8,4.88,11.15,11.15,0,0,1-6.55,1.91,11.94,11.94,0,0,1-6.09-1.55,10.87,10.87,0,0,1-4.19-4.41,14.1,14.1,0,0,1-1.5-6.64A13.92,13.92,0,0,1,492.1,293.45Zm19.3,1a9.36,9.36,0,0,0-3.62-3.78,10,10,0,0,0-5.13-1.33,10.41,10.41,0,0,0-5.22,1.28,8.87,8.87,0,0,0-3.51,3.71,13.8,13.8,0,0,0,0,11.52,9,9,0,0,0,3.54,3.74,10.82,10.82,0,0,0,10.34,0,9.19,9.19,0,0,0,3.63-3.78,11.91,11.91,0,0,0,1.3-5.69A11.58,11.58,0,0,0,511.4,294.42Z"/><path class="cls-1" d="M527.08,289.62v16.16c0,1.8.33,3,1,3.71a4.86,4.86,0,0,0,3.51,1h2.75v1.8h-3.06a6.38,6.38,0,0,1-4.7-1.51q-1.52-1.5-1.51-5V289.62h-3.69v-1.75h3.69v-6.21h2v6.21h7.25v1.75Z"/><path class="cls-1" d="M543.08,310.86a6.69,6.69,0,0,1-2.91-5.13h2.07a5,5,0,0,0,2.19,3.78,9,9,0,0,0,5.33,1.4,6.58,6.58,0,0,0,4.43-1.42,4.46,4.46,0,0,0,1.64-3.49,3.26,3.26,0,0,0-.88-2.36,5.69,5.69,0,0,0-2.18-1.42,35.89,35.89,0,0,0-3.55-1.08,34.18,34.18,0,0,1-4.37-1.42,7.29,7.29,0,0,1-2.83-2.09,5.61,5.61,0,0,1-1.17-3.73,5.36,5.36,0,0,1,1-3.17,7,7,0,0,1,2.88-2.32,9.87,9.87,0,0,1,4.19-.86,9.47,9.47,0,0,1,6.18,1.92,6.9,6.9,0,0,1,2.55,5.28h-2a5.44,5.44,0,0,0-1.89-4,7.15,7.15,0,0,0-4.86-1.53,6.76,6.76,0,0,0-4.32,1.35,4.07,4.07,0,0,0-1.71,3.29,4,4,0,0,0,1,2.77,6.49,6.49,0,0,0,2.39,1.62,36.42,36.42,0,0,0,3.75,1.19,33.27,33.27,0,0,1,4.12,1.32,7.23,7.23,0,0,1,2.63,1.89,4.87,4.87,0,0,1,1.08,3.31,6,6,0,0,1-1,3.42,6.79,6.79,0,0,1-2.88,2.38,9.73,9.73,0,0,1-4.14.86A11.44,11.44,0,0,1,543.08,310.86Z"/><path class="cls-1" d="M578.6,312.3l-10.67-11.2v11.2h-2V279h2v19.93l10.49-11.07h2.83L569.42,300l12,12.28Z"/><path class="cls-1" d="M587.75,293.45a10.7,10.7,0,0,1,4.19-4.37,12.13,12.13,0,0,1,6.09-1.53,11.17,11.17,0,0,1,6.57,1.89,10,10,0,0,1,3.78,4.82v-6.39h2V312.3h-2v-6.43a10.12,10.12,0,0,1-3.8,4.88,11.15,11.15,0,0,1-6.55,1.91,11.94,11.94,0,0,1-6.09-1.55,10.87,10.87,0,0,1-4.19-4.41,14.1,14.1,0,0,1-1.5-6.64A13.92,13.92,0,0,1,587.75,293.45Zm19.3,1a9.36,9.36,0,0,0-3.62-3.78,10,10,0,0,0-5.13-1.33,10.41,10.41,0,0,0-5.22,1.28,8.87,8.87,0,0,0-3.51,3.71,13.8,13.8,0,0,0,0,11.52,9,9,0,0,0,3.54,3.74,10.82,10.82,0,0,0,10.34,0,9.26,9.26,0,0,0,3.63-3.78,11.91,11.91,0,0,0,1.3-5.69A11.58,11.58,0,0,0,607.05,294.42Z"/><path class="cls-1" d="M647,312.3l-10.67-11.2v11.2h-2V279h2v19.93l10.49-11.07h2.83L637.85,300l12,12.28Z"/><path class="cls-1" d="M656.18,293.45a10.7,10.7,0,0,1,4.19-4.37,12.13,12.13,0,0,1,6.09-1.53,11.17,11.17,0,0,1,6.57,1.89,10,10,0,0,1,3.78,4.82v-6.39h2V312.3h-2v-6.43a10.12,10.12,0,0,1-3.8,4.88,11.15,11.15,0,0,1-6.55,1.91,11.94,11.94,0,0,1-6.09-1.55,10.87,10.87,0,0,1-4.19-4.41,14.1,14.1,0,0,1-1.5-6.64A13.92,13.92,0,0,1,656.18,293.45Zm19.3,1a9.36,9.36,0,0,0-3.62-3.78,10,10,0,0,0-5.13-1.33,10.41,10.41,0,0,0-5.22,1.28A8.87,8.87,0,0,0,658,294.3a13.9,13.9,0,0,0,0,11.52,9,9,0,0,0,3.54,3.74,10.82,10.82,0,0,0,10.34,0,9.19,9.19,0,0,0,3.63-3.78,11.91,11.91,0,0,0,1.3-5.69A11.58,11.58,0,0,0,675.48,294.42Z"/><path class="cls-1" d="M706.28,290.05c1.83,1.79,2.74,4.43,2.74,7.94V312.3h-2V298.13q0-4.36-2.2-6.68a7.84,7.84,0,0,0-6-2.32,8.24,8.24,0,0,0-6.32,2.52q-2.37,2.52-2.37,7.47V312.3h-2V287.87h2V293a8.1,8.1,0,0,1,3.44-4.2,10.46,10.46,0,0,1,5.56-1.46A9.77,9.77,0,0,1,706.28,290.05Z"/><path class="cls-1" d="M718.36,293.4a10.54,10.54,0,0,1,4.18-4.34,12.36,12.36,0,0,1,6.14-1.51,11.91,11.91,0,0,1,7.54,2.3,9.77,9.77,0,0,1,3.67,6.16h-2.12a7.64,7.64,0,0,0-3-4.95,10,10,0,0,0-6.06-1.8,10.1,10.1,0,0,0-4.9,1.2,8.68,8.68,0,0,0-3.53,3.64,14.09,14.09,0,0,0,0,11.95,8.86,8.86,0,0,0,3.53,3.64,10.8,10.8,0,0,0,11-.58,7.64,7.64,0,0,0,3-4.95h2.12a9.91,9.91,0,0,1-3.69,6.16,11.79,11.79,0,0,1-7.52,2.34,12.16,12.16,0,0,1-6.14-1.53,10.61,10.61,0,0,1-4.18-4.39,15.49,15.49,0,0,1,0-13.34Z"/><path class="cls-1" d="M769.9,300.87H748.79a11.22,11.22,0,0,0,1.44,5.54,8.73,8.73,0,0,0,3.56,3.37,10.42,10.42,0,0,0,4.81,1.13,10,10,0,0,0,6-1.78,7.72,7.72,0,0,0,3.06-4.84h2.12a9.76,9.76,0,0,1-3.69,6,11.84,11.84,0,0,1-7.52,2.32,12.19,12.19,0,0,1-6.12-1.53,10.73,10.73,0,0,1-4.23-4.39,15.49,15.49,0,0,1,0-13.34,10.55,10.55,0,0,1,4.21-4.34,12.47,12.47,0,0,1,6.16-1.51,12,12,0,0,1,6.1,1.51,10.25,10.25,0,0,1,3.94,4,11.09,11.09,0,0,1,1.35,5.37A24,24,0,0,1,769.9,300.87Zm-3.09-7.15a8.08,8.08,0,0,0-3.48-3.35,10.46,10.46,0,0,0-4.77-1.11,10.35,10.35,0,0,0-4.75,1.11,8.7,8.7,0,0,0-3.55,3.35,10.91,10.91,0,0,0-1.47,5.49H768A10,10,0,0,0,766.81,293.72Z"/><path class="cls-1" d="M780.06,279V312.3h-2V279Z"/><path class="cls-1" d="M789.67,293.45a10.68,10.68,0,0,1,4.18-4.37,12.19,12.19,0,0,1,6.1-1.53,11.17,11.17,0,0,1,6.57,1.89,10,10,0,0,1,3.78,4.82v-6.39h2V312.3h-2v-6.43a10.12,10.12,0,0,1-3.8,4.88,11.15,11.15,0,0,1-6.55,1.91,12,12,0,0,1-6.1-1.55,10.85,10.85,0,0,1-4.18-4.41,14,14,0,0,1-1.51-6.64A13.81,13.81,0,0,1,789.67,293.45Zm19.3,1a9.43,9.43,0,0,0-3.62-3.78,10,10,0,0,0-5.13-1.33,10.41,10.41,0,0,0-5.22,1.28,8.87,8.87,0,0,0-3.51,3.71,13.8,13.8,0,0,0,0,11.52,9,9,0,0,0,3.53,3.74,10.27,10.27,0,0,0,5.2,1.3,10.11,10.11,0,0,0,5.15-1.33,9.23,9.23,0,0,0,3.62-3.78,11.92,11.92,0,0,0,1.31-5.69A11.69,11.69,0,0,0,809,294.42Z"/><path class="cls-1" d="M826.85,288.79a11,11,0,0,1,5.85-1.41v2.11H832a8.85,8.85,0,0,0-6,2.05q-2.38,2-2.38,6.68V312.3h-2V287.87h2v5A7.49,7.49,0,0,1,826.85,288.79Z"/><path class="cls-1" d="M839.14,282a1.68,1.68,0,0,1-.5-1.28,1.71,1.71,0,0,1,.5-1.26,1.64,1.64,0,0,1,1.21-.49,1.66,1.66,0,0,1,1.22.49,1.7,1.7,0,0,1,.49,1.26,1.67,1.67,0,0,1-.49,1.28,1.69,1.69,0,0,1-1.22.48A1.67,1.67,0,0,1,839.14,282Zm2.2,5.92V312.3h-2V287.87Z"/><path class="cls-1" d="M853.08,318.6a5.34,5.34,0,0,1-1.28,3.91,5.5,5.5,0,0,1-4.07,1.31h-1.89V322h1.66a3.89,3.89,0,0,0,2.73-.79,3.8,3.8,0,0,0,.83-2.81V287.87h2ZM850.83,282a1.67,1.67,0,0,1-.49-1.28,1.7,1.7,0,0,1,.49-1.26,1.66,1.66,0,0,1,1.22-.49,1.74,1.74,0,0,1,1.24.49,1.81,1.81,0,0,1,0,2.52,1.75,1.75,0,0,1-1.24.5A1.69,1.69,0,0,1,850.83,282Z"/><path class="cls-1" d="M862.64,293.45a10.7,10.7,0,0,1,4.19-4.37,12.13,12.13,0,0,1,6.09-1.53,11.17,11.17,0,0,1,6.57,1.89,10,10,0,0,1,3.78,4.82v-6.39h2V312.3h-2v-6.43a10.07,10.07,0,0,1-3.8,4.88,11.13,11.13,0,0,1-6.55,1.91,11.94,11.94,0,0,1-6.09-1.55,10.87,10.87,0,0,1-4.19-4.41,14.1,14.1,0,0,1-1.5-6.64A13.92,13.92,0,0,1,862.64,293.45Zm19.31,1a9.45,9.45,0,0,0-3.63-3.78,10,10,0,0,0-5.13-1.33,10.34,10.34,0,0,0-5.21,1.28,8.8,8.8,0,0,0-3.51,3.71,13.8,13.8,0,0,0,0,11.52,8.92,8.92,0,0,0,3.53,3.74,10.84,10.84,0,0,0,10.35,0,9.23,9.23,0,0,0,3.62-3.78,11.91,11.91,0,0,0,1.3-5.69A11.69,11.69,0,0,0,882,294.42Z"/><path class="cls-1" d="M408.65,163.38v1.05c-4,0-6.58,1.12-6.58,16.77v65H400.6L355.49,166v62.36c0,15.65,2.55,16.77,6.59,16.77v1H347.43v-1c4.05,0,6.59-1.12,6.59-16.77V181.2c0-15.65-2.54-16.77-6.59-16.77v-1.05H364l36.61,65.07V181.2c0-15.65-2.55-16.77-6.59-16.77v-1.05Z"/><path class="cls-1" d="M466.18,245.12v1h-7.36c-4.42,0-8.6-3.45-9.11-6.71-5.17,5.81-13,8.3-19.66,8.3-10,0-16.77-7.07-16.77-17.87,0-21.43,24.36-32.37,36.28-35.6-.46-9.15-1-18.11-8-18.11-5.94,0-16.39,7.89-21.42,18.17l-5-7.14c10.12-7.44,20.86-12.5,27.72-12.5,12.77,0,16.71,8.17,16.71,19.89v33.76C459.59,244,462.14,245.12,466.18,245.12ZM449.62,195.6c-13.46,3.88-26.37,13.87-26.37,32.65,0,9.35,5.31,16.35,12.87,16.35a17.57,17.57,0,0,0,13.5-7.07C449.63,231.88,449.66,196.79,449.62,195.6Z"/><path class="cls-1" d="M498.47,242.29c-4.41,3.53-9.45,5.47-13.83,5.47-10,0-11.63-6.1-11.63-20.75V176.18h-6.58v-1c7.5,0,15.52-8.3,15.52-16h1v15.6h7.71v1.47H483V227c0,12.73-.2,17.59,6.43,17.59,2.32,0,5.26-1.27,8.15-3.52Z"/><path class="cls-1" d="M555.3,245.12v1h-7.37c-4.42,0-8.59-3.45-9.1-6.71-5.17,5.81-13,8.3-19.66,8.3-10,0-16.77-7.07-16.77-17.87,0-21.43,24.36-32.37,36.28-35.6-.46-9.15-1-18.11-8-18.11-5.95,0-16.39,7.89-21.43,18.17l-5-7.14c10.11-7.44,20.86-12.5,27.72-12.5,12.76,0,16.71,8.17,16.71,19.89v33.76C548.71,244,551.26,245.12,555.3,245.12ZM538.74,195.6c-13.46,3.88-26.38,13.87-26.38,32.65,0,9.35,5.32,16.35,12.88,16.35a17.6,17.6,0,0,0,13.5-7.07C538.74,231.88,538.78,196.79,538.74,195.6Z"/><path class="cls-1" d="M607.26,228.07a19.9,19.9,0,0,1-19.86,19.69c-14.92,0-26.88-8-26.88-15.39a6.51,6.51,0,1,1,13,0c0,6.85,4.48,13.92,13.9,13.92s14.75-6.38,14.75-13.09c0-21.29-41.63-16.78-41.63-39.38,0-10,8.09-19.11,20.3-19.11,9,0,23.28,3.58,23.28,14.24a6.51,6.51,0,1,1-13,0c0-7.45-3.34-12.77-10.3-12.77-7.46,0-14.08,4.65-14.08,11.95C566.74,206.76,607.26,202.42,607.26,228.07Z"/><path class="cls-1" d="M667.31,245.12v1H660c-4.42,0-8.59-3.45-9.1-6.71-5.17,5.81-13,8.3-19.66,8.3-10.05,0-16.78-7.07-16.78-17.87,0-21.43,24.37-32.37,36.29-35.6-.46-9.15-1-18.11-8-18.11-6,0-16.39,7.89-21.43,18.17l-5-7.14c10.12-7.44,20.86-12.5,27.73-12.5,12.76,0,16.71,8.17,16.71,19.89v33.76C660.73,244,663.27,245.12,667.31,245.12ZM650.76,195.6c-13.47,3.88-26.38,13.87-26.38,32.65,0,9.35,5.32,16.35,12.87,16.35a17.6,17.6,0,0,0,13.51-7.07C650.76,231.88,650.8,196.79,650.76,195.6Z"/><path class="cls-1" d="M745.85,163.38V189h-1.06c0-7.32-1.12-24.18-16.77-24.18h-4.63v63.5c0,15.65,2.55,16.77,6.59,16.77v1H706.83v-1c4,0,6.59-1.12,6.59-16.77v-63.5h-4.63C693.14,164.85,692,181.71,692,189h-1V163.38Z"/><path class="cls-1" d="M773.36,245.12v1H750.21v-1c4,0,6.59-1.12,6.59-16.77v-35.7c0-12.69-2.32-11.85-6.59-11v-1.05l16.56-4.27v52.06C766.77,244,769.32,245.12,773.36,245.12Zm-18.29-79.53a6.88,6.88,0,1,1,8.27,5.12A6.87,6.87,0,0,1,755.07,165.59Z"/><path class="cls-1" d="M830.61,236.07c-5.24,6.73-12.53,11.69-22.22,11.69-17.53,0-30.3-16.44-30.3-35.48,0-22.88,16.81-37.57,30.3-37.57,9.64,0,19,4.57,19,13.4h0s0,.08,0,.13a6.5,6.5,0,0,1-13,0c0-8.93-1.46-12.06-6-12.06-10.28,0-20.33,12.92-20.33,35.06,0,17.79,6.72,34.16,23.87,34.16,5.44,0,11.83-3.35,17.31-10.42Z"/><path class="cls-1" d="M888.87,245.12v1h-7.36c-4.42,0-8.6-3.45-9.11-6.71-5.17,5.81-13,8.3-19.66,8.3-10,0-16.77-7.07-16.77-17.87,0-21.43,24.36-32.37,36.29-35.6-.47-9.15-1-18.11-8-18.11-5.94,0-16.39,7.89-21.42,18.17l-5-7.14c10.12-7.44,20.86-12.5,27.72-12.5,12.77,0,16.71,8.17,16.71,19.89v33.76C882.28,244,884.83,245.12,888.87,245.12ZM872.31,195.6c-13.46,3.88-26.37,13.87-26.37,32.65,0,9.35,5.31,16.35,12.87,16.35a17.57,17.57,0,0,0,13.5-7.07C872.32,231.88,872.35,196.79,872.31,195.6Z"/><polygon class="cls-1" points="594.23 158.41 582.37 170.99 581.75 170.99 569.68 158.41 570.09 157.9 581.95 165.73 593.71 157.9 594.23 158.41"/></svg>