<svg id="Layer_1" data-name="Layer 1" xmlns="http://www.w3.org/2000/svg" viewBox="0 0 500 500"><defs><style>.cls-1{fill:#fff;}</style></defs><path class="cls-1" d="M104.94,208.82v37.47h-.59L80.78,204.52V235.7c0,5.42,2,9.33,4.9,9.73H75.22c3-.4,5-4.31,5-9.73V208c0-5.43-1.59-7.88-5-8.94h9l20.19,35.48V208.82c0-5.43-2-9.33-5-9.73h10.46C107,199.49,104.94,203.39,104.94,208.82Z"/><path class="cls-1" d="M122.42,245.43h-14.1c5.43-.47,6.75-1.72,9.86-11.65l11.19-35.62h.33l12.77,40.25c1.79,5.76,3.58,6.49,8.74,7H132.35c4.36-.4,5.82-2.65,4.36-7.35l-2.31-7.68H119.77l-1.19,4C115.33,244.7,117.92,245,122.42,245.43ZM120,229.87H134.2l-7-23.1Z"/><path class="cls-1" d="M168.42,245.43H153.2c3-.4,5-1,5-6.43V199.69h-.07c-10.19,0-11.38,8.47-12.11,10.65l1.92-11.25h25.82l2,11.25c-.79-2.18-2-10.65-12.11-10.65h-.07V239C163.52,244.43,165.51,245,168.42,245.43Z"/><path class="cls-1" d="M217.2,247.35c-8.07,0-16.87-5-20.45-16.22l-.26-.73H181.92l-1.25,4,.06-.13c-3.24,10.32-.73,10.72,3.84,11.12h-14.1c5.36-.47,6.75-1.72,9.87-11.65l11.18-35.62h.33l9.8,30.92c3.44,12.24,11.25,17.27,17.81,17.27,5.69,0,10.45-3.77,10.45-9.86,0-13.5-25.08-13.83-25.08-27.54,0-7.48,6.42-10.59,12.9-10.59,4.37,0,8.74,1.39,11.39,3.71l-.93,8.34c0-8-5.16-11.58-10.06-11.58-4.5,0-8.8,3-8.8,8.2,0,11.26,23.83,12.25,23.83,25.75C233.16,241.92,225.54,247.35,217.2,247.35Zm-35.14-17.48h14.29l-7-23.1Z"/><path class="cls-1" d="M246.66,245.43h-14.1c5.43-.47,6.75-1.72,9.86-11.65l11.19-35.62h.33l12.78,40.25c1.78,5.76,3.57,6.49,8.73,7H256.59c4.37-.4,5.82-2.65,4.37-7.35l-2.32-7.68H244l-1.19,4C239.58,244.7,242.16,245,246.66,245.43Zm-2.45-15.56h14.23l-7-23.1Z"/><path class="cls-1" d="M315.83,245.43H300.61c3-.4,5-1,5-6.43V199.69h-.07c-10.19,0-11.38,8.47-12.11,10.65l1.92-11.25h25.82l2,11.25c-.79-2.18-2-10.65-12.11-10.65h-.07V239C310.93,244.43,312.92,245,315.83,245.43Z"/><path class="cls-1" d="M341.31,245.43H326.09c3-.4,5-1,5-6.43V205.51c0-5.43-2-6-5-6.42h15.22c-2.91.4-5,1-5,6.42V239C336.35,244.43,338.4,245,341.31,245.43Z"/><path class="cls-1" d="M368.52,246.09c-12.25,0-24.16-9.07-24.16-24,0-14.5,11.65-24.23,24.69-24.23a27.31,27.31,0,0,1,16,5.23L383,212.59a12.69,12.69,0,0,0-9.67-13.83,20.4,20.4,0,0,0-4-.33c-10.85,0-19,8.34-19,21.51,0,15.62,10.59,23.43,21.12,23.43,11.72,0,18-6.48,22.11-17.07l10.79-28.14h.59l12.78,40.25-.07-.07c1.85,5.83,3.64,6.56,8.8,7.09H407.57c4.37-.4,5.83-2.65,4.37-7.35l-2.32-7.68H392.41C387.32,240.73,379.37,246.09,368.52,246.09Zm24.16-16.22h16.74l-7.34-24.23-7.95,20.79C393.67,227.62,393.21,228.81,392.68,229.87Z"/><path class="cls-1" d="M88.61,289.19H77.3l-2.41,6.3h-.74l8.48-22.19h.65l8.45,22.19H91Zm-.23-.59L83,274.34,77.53,288.6Z"/><path class="cls-1" d="M95.72,281.93a7.45,7.45,0,0,1,3-3.12,9,9,0,0,1,4.46-1.09,8.24,8.24,0,0,1,5.11,1.57,7.57,7.57,0,0,1,2.81,4V271.45h.62v24h-.62V290.1a7.51,7.51,0,0,1-2.81,4,8.19,8.19,0,0,1-5.11,1.58,9,9,0,0,1-4.46-1.09,7.45,7.45,0,0,1-3-3.12,11.26,11.26,0,0,1,0-9.58Zm14.38.39a7.34,7.34,0,0,0-2.83-3,7.94,7.94,0,0,0-4.07-1.06,8.32,8.32,0,0,0-4.18,1,6.85,6.85,0,0,0-2.75,2.91,10.92,10.92,0,0,0,0,9A6.85,6.85,0,0,0,99,294.13a8.32,8.32,0,0,0,4.18,1,7.94,7.94,0,0,0,4.07-1.06,7.34,7.34,0,0,0,2.83-3,10,10,0,0,0,0-8.8Z"/><path class="cls-1" d="M122.89,294.52l7-16.57h.68l-7.48,17.54h-.48L115.15,278h.72Z"/><path class="cls-1" d="M137.38,294.63a7.75,7.75,0,0,1-3.07-3.12,10.8,10.8,0,0,1,0-9.58,7.75,7.75,0,0,1,3.07-3.12,9.37,9.37,0,0,1,8.77,0,7.67,7.67,0,0,1,3.06,3.12,11,11,0,0,1,0,9.58,7.67,7.67,0,0,1-3.06,3.12,9.37,9.37,0,0,1-8.77,0Zm8.29-.42a7.15,7.15,0,0,0,2.89-2.81,10.51,10.51,0,0,0,0-9.36,7.15,7.15,0,0,0-2.89-2.81,8.68,8.68,0,0,0-7.82,0,7.13,7.13,0,0,0-2.91,2.83,10.42,10.42,0,0,0,0,9.32,7.13,7.13,0,0,0,2.91,2.83,8.68,8.68,0,0,0,7.82,0Z"/><path class="cls-1" d="M163.76,295.49l-8.09-8.22v8.22H155v-24h.65V286l7.93-8h.94l-8.64,8.7,8.77,8.84Z"/><path class="cls-1" d="M168.12,281.93a7.39,7.39,0,0,1,3-3.12,8.92,8.92,0,0,1,4.45-1.09,8.27,8.27,0,0,1,5.12,1.57,7.62,7.62,0,0,1,2.81,4V278h.62v17.54h-.62v-5.36a7.56,7.56,0,0,1-2.81,4,8.22,8.22,0,0,1-5.12,1.58,8.92,8.92,0,0,1-4.45-1.09,7.39,7.39,0,0,1-3-3.12,11.26,11.26,0,0,1,0-9.58Zm14.38.39a7.47,7.47,0,0,0-2.83-3,8,8,0,0,0-4.08-1.06,8.31,8.31,0,0,0-4.17,1,6.85,6.85,0,0,0-2.75,2.91,10.92,10.92,0,0,0,0,9,6.85,6.85,0,0,0,2.75,2.91,8.31,8.31,0,0,0,4.17,1,8,8,0,0,0,4.08-1.06,7.47,7.47,0,0,0,2.83-3,10,10,0,0,0,0-8.8Z"/><path class="cls-1" d="M191.06,278.6v12.28a6.5,6.5,0,0,0,.36,2.44,2.11,2.11,0,0,0,1.13,1.18,5.56,5.56,0,0,0,2.18.34h1.85v.65h-1.91a4.34,4.34,0,0,1-3.27-1,5.11,5.11,0,0,1-1-3.57V278.6h-2.86V278h2.86v-4.49h.65V278h5.52v.65Z"/><path class="cls-1" d="M201.64,294.55a4.69,4.69,0,0,1-2.07-3.54h.65a4,4,0,0,0,1.74,3,7.56,7.56,0,0,0,4.37,1.09,5.5,5.5,0,0,0,2.52-.56,4.16,4.16,0,0,0,1.67-1.48,3.64,3.64,0,0,0,.59-2,2.67,2.67,0,0,0-.67-1.9,4.21,4.21,0,0,0-1.66-1.12,22.45,22.45,0,0,0-2.71-.85,22.18,22.18,0,0,1-3.1-1,5.1,5.1,0,0,1-2-1.49,4.07,4.07,0,0,1-.83-2.66,3.67,3.67,0,0,1,.72-2.18,5,5,0,0,1,2-1.61,6.4,6.4,0,0,1,2.81-.6,6.57,6.57,0,0,1,4.29,1.33,4.92,4.92,0,0,1,1.75,3.71H211a4.5,4.5,0,0,0-1.48-3.21,5.63,5.63,0,0,0-3.91-1.25,5.81,5.81,0,0,0-2.47.52,4.44,4.44,0,0,0-1.74,1.4,3.19,3.19,0,0,0-.64,1.89,3.41,3.41,0,0,0,.75,2.3,4.46,4.46,0,0,0,1.84,1.3,27.52,27.52,0,0,0,2.91.91c1.23.35,2.2.66,2.9.94a4.67,4.67,0,0,1,1.81,1.29,3.31,3.31,0,0,1,.75,2.26,4.08,4.08,0,0,1-.72,2.35,4.87,4.87,0,0,1-1.95,1.66,6.21,6.21,0,0,1-2.76.6A8.31,8.31,0,0,1,201.64,294.55Z"/><path class="cls-1" d="M225.08,295.49,217,287.27v8.22h-.65v-24H217V286l7.93-8h.94l-8.64,8.7,8.77,8.84Z"/><path class="cls-1" d="M229.43,281.93a7.48,7.48,0,0,1,3-3.12,8.92,8.92,0,0,1,4.45-1.09,8.24,8.24,0,0,1,5.11,1.57,7.64,7.64,0,0,1,2.82,4V278h.61v17.54h-.61v-5.36a7.58,7.58,0,0,1-2.82,4,8.19,8.19,0,0,1-5.11,1.58,8.92,8.92,0,0,1-4.45-1.09,7.48,7.48,0,0,1-3-3.12,11.26,11.26,0,0,1,0-9.58Zm14.38.39a7.34,7.34,0,0,0-2.83-3,7.94,7.94,0,0,0-4.07-1.06,8.32,8.32,0,0,0-4.18,1,6.83,6.83,0,0,0-2.74,2.91,10.82,10.82,0,0,0,0,9,6.83,6.83,0,0,0,2.74,2.91,8.32,8.32,0,0,0,4.18,1,7.94,7.94,0,0,0,4.07-1.06,7.34,7.34,0,0,0,2.83-3,9.91,9.91,0,0,0,0-8.8Z"/><path class="cls-1" d="M269.14,295.49l-8.09-8.22v8.22h-.65v-24h.65V286l7.93-8h.94l-8.64,8.7,8.77,8.84Z"/><path class="cls-1" d="M273.49,281.93a7.48,7.48,0,0,1,3-3.12,8.92,8.92,0,0,1,4.45-1.09,8.29,8.29,0,0,1,5.12,1.57,7.68,7.68,0,0,1,2.81,4V278h.62v17.54h-.62v-5.36a7.61,7.61,0,0,1-2.81,4,8.24,8.24,0,0,1-5.12,1.58,8.92,8.92,0,0,1-4.45-1.09,7.48,7.48,0,0,1-3-3.12,11.26,11.26,0,0,1,0-9.58Zm14.38.39a7.38,7.38,0,0,0-2.82-3A8,8,0,0,0,281,278.3a8.32,8.32,0,0,0-4.18,1,6.83,6.83,0,0,0-2.74,2.91,10.82,10.82,0,0,0,0,9,6.83,6.83,0,0,0,2.74,2.91,8.32,8.32,0,0,0,4.18,1,8,8,0,0,0,4.08-1.06,7.38,7.38,0,0,0,2.82-3,9.91,9.91,0,0,0,0-8.8Z"/><path class="cls-1" d="M307.65,279.47q2,1.92,2,5.79v10.23H309v-10.3a7.33,7.33,0,0,0-1.72-5.25,6.22,6.22,0,0,0-4.71-1.8,6.53,6.53,0,0,0-5,2c-1.25,1.36-1.88,3.35-1.88,6v9.32H295V278h.65v4.61a6.18,6.18,0,0,1,2.47-3.72,7.5,7.5,0,0,1,4.42-1.28A7,7,0,0,1,307.65,279.47Z"/><path class="cls-1" d="M315.27,281.91a7.53,7.53,0,0,1,3-3.12,8.83,8.83,0,0,1,4.36-1.07,8.51,8.51,0,0,1,5.47,1.7,7,7,0,0,1,2.58,4.47H330a6.09,6.09,0,0,0-2.43-4.09,8.1,8.1,0,0,0-5-1.5,8.24,8.24,0,0,0-3.89.93A6.92,6.92,0,0,0,315.9,282a10.77,10.77,0,0,0,0,9.36,6.92,6.92,0,0,0,2.84,2.81,8.24,8.24,0,0,0,3.89.93,8.1,8.1,0,0,0,5-1.5,6.11,6.11,0,0,0,2.43-4.09h.65A6.93,6.93,0,0,1,328.1,294a8.46,8.46,0,0,1-5.47,1.71,8.83,8.83,0,0,1-4.36-1.07,7.53,7.53,0,0,1-3-3.12,11.16,11.16,0,0,1,0-9.62Z"/><path class="cls-1" d="M348,293.64a6.09,6.09,0,0,0,2.44-4.09h.65a6.93,6.93,0,0,1-2.58,4.46,8.49,8.49,0,0,1-5.48,1.71,8.82,8.82,0,0,1-4.35-1.07,7.61,7.61,0,0,1-3-3.12,11.16,11.16,0,0,1,0-9.62,7.61,7.61,0,0,1,3-3.12,8.82,8.82,0,0,1,4.35-1.07,8.39,8.39,0,0,1,4.39,1.09,7.17,7.17,0,0,1,2.74,2.81,7.55,7.55,0,0,1,.93,3.64c0,.78,0,1.36,0,1.75H335.23a8.92,8.92,0,0,0,1.12,4.52,7,7,0,0,0,2.85,2.71,8.25,8.25,0,0,0,3.83.9A8.08,8.08,0,0,0,348,293.64Zm-8.8-14.44a7,7,0,0,0-2.85,2.71,8.92,8.92,0,0,0-1.12,4.52h15.28a8.09,8.09,0,0,0-.87-4.52,6.51,6.51,0,0,0-2.79-2.71,8.58,8.58,0,0,0-7.65,0Z"/><path class="cls-1" d="M356.45,271.45v24h-.65v-24Z"/><path class="cls-1" d="M362.23,281.93a7.48,7.48,0,0,1,3-3.12,8.92,8.92,0,0,1,4.45-1.09,8.29,8.29,0,0,1,5.12,1.57,7.68,7.68,0,0,1,2.81,4V278h.61v17.54h-.61v-5.36a7.61,7.61,0,0,1-2.81,4,8.24,8.24,0,0,1-5.12,1.58,8.92,8.92,0,0,1-4.45-1.09,7.48,7.48,0,0,1-3-3.12,11.26,11.26,0,0,1,0-9.58Zm14.38.39a7.38,7.38,0,0,0-2.82-3,8,8,0,0,0-4.08-1.06,8.32,8.32,0,0,0-4.18,1,6.83,6.83,0,0,0-2.74,2.91,10.82,10.82,0,0,0,0,9,6.83,6.83,0,0,0,2.74,2.91,8.32,8.32,0,0,0,4.18,1,8,8,0,0,0,4.08-1.06,7.38,7.38,0,0,0,2.82-3,9.91,9.91,0,0,0,0-8.8Z"/><path class="cls-1" d="M391.35,277.56v.71h-.29a7.13,7.13,0,0,0-4.7,1.61q-1.94,1.61-1.93,5.18v10.43h-.65V278h.65v4.25Q385.47,277.57,391.35,277.56Z"/><path class="cls-1" d="M394.48,273.22a1,1,0,0,1,0-1.27.88.88,0,0,1,1.21,0,1,1,0,0,1,0,1.27.88.88,0,0,1-1.21,0Zm.93,4.73v17.54h-.65V278Z"/><path class="cls-1" d="M401.91,300.43a3.56,3.56,0,0,1-.78,2.46,3.39,3.39,0,0,1-2.6.86h-1.17v-.65h1.17a2.86,2.86,0,0,0,2.08-.64,3,3,0,0,0,.65-2.22V278h.65ZM401,273.22a1,1,0,0,1,0-1.27.85.85,0,0,1,.6-.24.81.81,0,0,1,.6.24.93.93,0,0,1,0,1.27.81.81,0,0,1-.6.24A.85.85,0,0,1,401,273.22Z"/><path class="cls-1" d="M407.69,281.93a7.45,7.45,0,0,1,3-3.12,9,9,0,0,1,4.46-1.09,8.24,8.24,0,0,1,5.11,1.57,7.57,7.57,0,0,1,2.81,4V278h.62v17.54h-.62v-5.36a7.51,7.51,0,0,1-2.81,4,8.19,8.19,0,0,1-5.11,1.58,9,9,0,0,1-4.46-1.09,7.45,7.45,0,0,1-3-3.12,11.26,11.26,0,0,1,0-9.58Zm14.38.39a7.34,7.34,0,0,0-2.83-3,7.94,7.94,0,0,0-4.07-1.06,8.32,8.32,0,0,0-4.18,1,6.85,6.85,0,0,0-2.75,2.91,10.92,10.92,0,0,0,0,9,6.85,6.85,0,0,0,2.75,2.91,8.32,8.32,0,0,0,4.18,1,7.94,7.94,0,0,0,4.07-1.06,7.34,7.34,0,0,0,2.83-3,10,10,0,0,0,0-8.8Z"/><polygon class="cls-1" points="225.98 187.19 218.37 195.27 217.97 195.27 210.22 187.19 210.49 186.86 218.1 191.89 225.65 186.86 225.98 187.19"/></svg>